<?xml version="1.0" encoding="utf-8"?>
<svg version="1.1" xmlns="http://www.w3.org/2000/svg" width="378" height="383">
  <path stroke="rgb(255,0,0)" stroke-width="0" d="M 194.748 72.169 C 198.31 73.596 200.936 76.95 203.025 79.342 C 204.791 81.364 204.61 83.576 206.887 85.411 C 210.085 87.989 218.743 92.709 222.337 92.033 C 225.088 91.515 224.26 87.046 227.855 85.411 C 232.935 83.101 245.885 81.826 256.198 81.847 C 254.133 81.026 252.317 80.112 251.184 78.98 C 248.252 76.053 250.974 71.181 246.77 68.496 C 239.163 63.638 204.962 58.528 197.111 61.875 C 193.117 63.578 194.865 67.725 192.952 71.603 C 193.602 71.764 194.206 71.952 194.748 72.169 Z M 317.793 104.723 C 319.048 111.926 319.714 125.746 317.793 134.519 C 316.055 142.456 312.761 148.457 307.861 155.486 C 302.128 163.708 291.536 173.99 284.135 180.316 C 278.095 185.477 266.027 189.727 267.03 191.903 C 268.234 194.513 292.116 190.585 299.584 192.455 C 304.613 193.713 307.659 194.2 310.068 198.524 C 313.861 205.33 313.577 223.657 313.379 236.044 C 313.182 248.301 312.185 258.669 308.964 272.461 C 304.997 289.449 295.02 319.545 289.101 330.948 C 285.749 337.406 284.359 340.011 279.721 342.535 C 274.165 345.559 261.978 347.242 256.546 345.846 C 252.538 344.816 250.005 341.274 248.27 338.673 C 246.778 336.437 247.444 332.834 246.063 331.5 C 244.881 330.358 243.196 330.109 241.097 330.397 C 238.01 330.819 233.577 334.943 228.958 335.914 C 223.79 337.001 214.708 335.452 211.301 335.914 C 209.52 336.156 209.571 336.274 207.991 337.018 C 205.134 338.363 199.9 343.388 194.748 344.743 C 189.034 346.244 180.01 346.162 174.885 344.743 C 170.814 343.615 166.775 340.111 165.505 338.673 C 164.9 337.989 165.533 337.05 164.953 337.018 C 163.741 336.951 159.435 342.535 156.125 343.639 C 152.814 344.743 148.311 344.84 145.089 343.639 C 141.877 342.442 139.857 339.767 136.813 336.466 C 134.801 334.284 132.492 331.004 130.141 327.66 C 130.193 329.113 130.084 330.501 129.795 331.69 C 128.909 335.336 127.09 338.977 122.622 341.07 C 115.605 344.355 98.563 343.082 86.205 343.277 C 73.56 343.476 56.166 345.042 47.582 342.173 C 41.717 340.214 40.247 338.469 35.994 332.793 C 28.686 323.037 14.63 296.269 10.613 280.927 C 7.397 268.643 8.72 259.438 9.51 247.821 C 10.363 235.259 12.891 219.821 16.131 208.094 C 18.999 197.71 21.636 190.49 27.166 180.505 C 33.946 168.264 51.057 144.889 55.858 140.226 C 57.56 138.573 58.332 139.339 59.169 138.571 C 59.959 137.845 60.232 136.576 60.824 135.812 C 61.345 135.139 61.143 135.009 62.479 134.157 C 66.521 131.577 86.999 120.393 96.137 118.155 C 102.742 116.538 108.448 117.858 112.69 118.155 C 115.741 118.369 118.548 120.008 119.863 119.259 C 120.901 118.668 120.881 116.982 120.967 115.397 C 121.079 113.329 118.541 111.567 119.863 107.672 C 122.764 99.127 143.906 72.752 152.969 62.979 C 158.989 56.488 164.493 55.654 168.419 50.288 C 172.5 44.71 173.989 33.15 176.695 29.873 C 178.183 28.071 177.911 27.934 181.109 27.665 C 186.48 27.215 205.118 30.442 222.748 33.336 C 223.691 31.754 224.73 30.361 225.691 29.403 C 227.849 27.25 229.812 26.656 233.415 26.092 C 238.824 25.245 250.668 25.554 256.59 27.196 C 261.156 28.461 264.588 30.397 267.073 33.265 C 267.649 33.929 268.195 34.681 268.694 35.491 C 275.453 36.051 284.216 38.193 293.67 42.011 C 306.995 47.393 334.789 62.521 340.57 67.945 C 342.885 70.116 341.421 71.202 342.778 72.91 C 344.6 75.206 349.76 76.942 351.606 80.083 C 353.512 83.329 354.618 88.47 353.813 92.222 C 352.999 96.018 350.074 100.573 346.64 102.706 C 343.018 104.956 338.7 104.767 332.294 104.913 C 328.566 104.998 323.355 104.83 317.749 104.471 C 317.763 104.555 317.778 104.639 317.793 104.723 Z" style="stroke: rgb(129, 151, 57); stroke-width: 2px; fill: rgb(227, 176, 123);"/>
  <path d="M0 0 C4.91916058 3.88354782 8.807649 8.23336429 11.44921875 13.93359375 C13.38679779 13.78881439 15.32427699 13.64269877 17.26171875 13.49609375 C18.34066406 13.41488281 19.41960937 13.33367188 20.53125 13.25 C22.62991947 13.08051622 24.72861728 12.90003254 26.8190918 12.64892578 C32.22696226 12.03750963 37.36813359 11.96291851 42.8046875 12.29296875 C55.54987382 13.65982284 55.54987382 13.65982284 67.52636719 10.74267578 C70.80970746 7.35625641 71.88969543 3.32393498 73.44921875 -1.06640625 C75.8515625 -3.8046875 75.8515625 -3.8046875 78.44921875 -6.06640625 C79.29033203 -6.94619141 79.29033203 -6.94619141 80.1484375 -7.84375 C83.99714307 -9.88898743 87.97407535 -9.61957853 92.26171875 -9.62890625 C93.5775293 -9.68401367 93.5775293 -9.68401367 94.91992188 -9.74023438 C99.42823392 -9.77058203 102.67999078 -9.42478368 106.3359375 -6.65625 C110.77885621 -2.19487679 113.30730498 3.32976521 113.55566406 9.63671875 C113.46867309 11.46810765 113.36277497 13.29869084 113.23852539 15.12792969 C112.63501488 23.4598956 112.63501488 23.4598956 115.98779297 30.75195312 C120.23585107 33.96051385 125.09279971 35.90102773 130.00244141 37.88134766 C133.80116035 39.51500148 137.2245591 41.64389106 140.69921875 43.87109375 C141.68027588 44.4906897 141.68027588 44.4906897 142.68115234 45.12280273 C163.99782548 58.7876773 182.03501492 75.37441111 188.12890625 100.765625 C192.09484115 121.49170943 191.09854389 146.04365664 179.26171875 164.05859375 C171.02896723 175.23411603 160.34250654 181.83227701 147.38671875 186.24609375 C146.64301025 186.50084473 145.89930176 186.7555957 145.13305664 187.01806641 C139.90046817 188.70718673 134.92807354 189.47204503 129.44921875 189.93359375 C129.6100293 190.58239502 129.77083984 191.23119629 129.93652344 191.8996582 C130.58939034 195.76307582 130.63054015 199.57015055 130.65234375 203.4765625 C130.65940338 204.30916092 130.66646301 205.14175934 130.67373657 205.99958801 C130.90406386 241.27341464 127.16720177 273.75224872 114.44921875 306.93359375 C114.1749707 307.67013184 113.90072266 308.40666992 113.61816406 309.16552734 C108.13903486 323.81908855 100.75644118 337.31956823 90.9453125 349.5390625 C87.51165824 355.03470234 88.36963168 361.54787558 88.48828125 367.80664062 C88.50872685 369.5155523 88.48292926 371.22489227 88.44921875 372.93359375 C86.61668906 374.76612344 84.05324851 374.05629727 81.61439842 374.06267506 C80.76908453 374.05976222 79.92377065 374.05684938 79.05284119 374.05384827 C78.16177235 374.05470269 77.27070351 374.05555712 76.35263258 374.05643743 C73.34305998 374.05809497 70.33354214 374.0525664 67.32397461 374.04711914 C65.17607118 374.0468373 63.02816765 374.04699494 60.88026428 374.04756165 C55.02926206 374.04784975 49.17828015 374.04195095 43.32728267 374.03498769 C37.22002562 374.02875628 31.11276816 374.02815052 25.00550842 374.02696228 C13.4315991 374.02384833 1.85769917 374.0156341 -9.71620601 374.00561279 C-22.88889148 373.99445361 -36.06157739 373.9889417 -49.2342664 373.98391736 C-76.33977657 373.97345153 -103.44527838 373.95585087 -130.55078125 373.93359375 C-130.51968765 373.36013718 -130.48859406 372.7866806 -130.45655823 372.19584656 C-130.33233653 369.57106933 -130.2556734 366.94691089 -130.1796875 364.3203125 C-130.12993774 363.41825073 -130.08018799 362.51618896 -130.02893066 361.58679199 C-129.92532441 356.8089079 -130.03320335 353.84567532 -133.42008972 350.28489685 C-136.64959446 347.59036584 -136.64959446 347.59036584 -140.1015625 345.21875 C-163.097365 330.26553712 -177.99861088 297.54951967 -183.4921875 271.67578125 C-191.71153259 230.26457653 -183.93899364 187.23506724 -160.55078125 151.93359375 C-139.28175456 121.25586403 -109.78832658 100.23761508 -73.55078125 90.93359375 C-72.56078125 90.93359375 -71.57078125 90.93359375 -70.55078125 90.93359375 C-70.28394531 90.21300781 -70.01710938 89.49242188 -69.7421875 88.75 C-65.28442529 78.21214246 -57.35805947 68.48895826 -49.94140625 59.87109375 C-49.11125 58.90171875 -48.28109375 57.93234375 -47.42578125 56.93359375 C-46.66007813 56.06734375 -45.894375 55.20109375 -45.10546875 54.30859375 C-43.35808524 52.12922739 -43.35808524 52.12922739 -43.59765625 49.9453125 C-44.81976663 47.36585822 -46.31411347 45.10239285 -47.92578125 42.74609375 C-51.05996653 37.93563315 -53.13551189 33.48144965 -54.55078125 27.93359375 C-54.89109375 26.69609375 -54.89109375 26.69609375 -55.23828125 25.43359375 C-56.28589759 17.05266306 -55.79755685 8.9240081 -51.07421875 1.6640625 C-37.84245853 -14.61885704 -15.68681809 -10.64871593 0 0 Z M-8.55078125 23.93359375 C-7.56078125 31.85359375 -7.56078125 31.85359375 -6.55078125 39.93359375 C-9.02578125 40.92359375 -9.02578125 40.92359375 -11.55078125 41.93359375 C-20.97134884 48.29419596 -29.29247532 56.23273748 -36.55078125 64.93359375 C-37.31132812 65.80628906 -38.071875 66.67898437 -38.85546875 67.578125 C-57.93522248 89.7783992 -73.78204747 118.08992483 -79.55078125 146.93359375 C-83.84078125 146.93359375 -88.13078125 146.93359375 -92.55078125 146.93359375 C-89.97648549 137.09203827 -87.26482588 127.46505383 -83.34326172 118.0625 C-82.25179549 115.35187227 -81.48350366 113.42331199 -81.88671875 110.48828125 C-82.10585937 109.97523437 -82.325 109.4621875 -82.55078125 108.93359375 C-97.50675922 112.65308045 -111.05726367 119.63524264 -122.55078125 129.93359375 C-123.36675781 130.63097656 -124.18273437 131.32835937 -125.0234375 132.046875 C-152.60810041 156.05022155 -169.83912042 191.43102338 -172.55078125 227.93359375 C-173.89896582 258.85195983 -168.9488849 288.31917525 -150.78410339 314.08003235 C-149.55078125 315.93359375 -149.55078125 315.93359375 -147.68310547 319.42626953 C-145.28684308 323.48156959 -142.75386033 326.67117231 -138.55078125 328.93359375 C-129.23783033 331.12984768 -119.33880379 330.15147314 -109.86328125 329.74609375 C-107.21563651 329.68082178 -104.56783753 329.62151723 -101.91992188 329.56835938 C-95.46015427 329.42573372 -89.00618776 329.20879951 -82.55078125 328.93359375 C-82.70064549 327.00990282 -82.8534786 325.08644301 -83.00756836 323.16308594 C-83.09235947 322.09193542 -83.17715057 321.02078491 -83.26451111 319.91717529 C-84.75238354 304.41018358 -93.05714523 290.10206123 -101.66870117 277.44921875 C-103.55162523 274.6598258 -105.03691789 272.29409697 -105.55078125 268.93359375 C-103.63442908 268.87935737 -101.717632 268.84069412 -99.80078125 268.80859375 C-98.7334375 268.78539062 -97.66609375 268.7621875 -96.56640625 268.73828125 C-93.42747205 268.9415801 -92.04781793 269.06467763 -89.55078125 270.93359375 C-87.92127982 273.17887825 -86.44401646 275.39400441 -84.98828125 277.74609375 C-80.06984762 285.36879883 -74.6873934 292.25787736 -68.55078125 298.93359375 C-67.69758301 299.86268555 -67.69758301 299.86268555 -66.82714844 300.81054688 C-57.07162358 311.29550581 -46.83370948 321.38089569 -32.55078125 324.93359375 C-32.85567214 319.75044857 -33.94805471 315.68177994 -35.92578125 310.87109375 C-41.28210646 297.4108183 -42.31662121 283.23533069 -43.55078125 268.93359375 C-39.92078125 268.93359375 -36.29078125 268.93359375 -32.55078125 268.93359375 C-31.03967353 272.71136306 -30.27669773 274.84856645 -29.875 278.671875 C-29.77227783 279.56624268 -29.66955566 280.46061035 -29.5637207 281.38208008 C-29.45632568 282.32720459 -29.34893066 283.2723291 -29.23828125 284.24609375 C-27.54664423 297.55531284 -24.00128477 309.17859339 -18.42578125 321.37109375 C-18.08909424 322.11206299 -17.75240723 322.85303223 -17.40551758 323.61645508 C-16.53700769 325.43098588 -15.55200736 327.18877922 -14.55078125 328.93359375 C-11.51943741 329.9440417 -9.80682182 329.98392324 -6.6640625 329.8125 C-5.25737305 329.73999023 -5.25737305 329.73999023 -3.82226562 329.66601562 C-2.84580078 329.60994141 -1.86933594 329.55386719 -0.86328125 329.49609375 C0.12478516 329.44388672 1.11285156 329.39167969 2.13085938 329.33789062 C4.57063551 329.20824069 7.0099998 329.07327633 9.44921875 328.93359375 C9.4632373 327.6820752 9.4632373 327.6820752 9.47753906 326.40527344 C9.87247782 298.25620684 9.87247782 298.25620684 12.26171875 286.55859375 C12.41479492 285.8015918 12.56787109 285.04458984 12.72558594 284.26464844 C13.96048196 278.83844196 16.0491093 273.94232629 18.44921875 268.93359375 C19.70734375 268.89234375 20.96546875 268.85109375 22.26171875 268.80859375 C22.96941406 268.78539062 23.67710937 268.7621875 24.40625 268.73828125 C26.44921875 268.93359375 26.44921875 268.93359375 29.44921875 270.93359375 C28.45556499 276.21749373 27.33787981 281.42595061 25.94921875 286.62109375 C21.01193678 305.80168043 21.01193678 305.80168043 23.44921875 324.93359375 C29.42387183 324.53528354 33.27585618 321.84403692 38.07421875 318.55859375 C38.86675049 318.02274658 39.65928223 317.48689941 40.47583008 316.93481445 C47.40865986 312.14955158 53.46424738 306.85217082 59.44921875 300.93359375 C60.40634766 300.06734375 60.40634766 300.06734375 61.3828125 299.18359375 C69.58134454 291.6098921 75.88042255 281.45201784 81.1953125 271.7265625 C82.44921875 269.93359375 82.44921875 269.93359375 85.44921875 268.93359375 C87.17717227 268.86556408 88.9075724 268.8486373 90.63671875 268.87109375 C91.53777344 268.88011719 92.43882812 268.88914062 93.3671875 268.8984375 C94.39779297 268.91583984 94.39779297 268.91583984 95.44921875 268.93359375 C94.93697193 274.94449007 93.07754625 279.5973225 90.44921875 284.99609375 C90.04912598 285.82810303 89.6490332 286.6601123 89.23681641 287.51733398 C85.03432737 296.07105091 80.09271096 303.99793279 74.43359375 311.6640625 C73.82 312.49550781 73.20640625 313.32695312 72.57421875 314.18359375 C72.04054688 314.869375 71.506875 315.55515625 70.95703125 316.26171875 C68.74096515 319.95923184 68.74096515 319.95923184 66.44921875 328.93359375 C73.70921875 328.93359375 80.96921875 328.93359375 88.44921875 328.93359375 C111.09769522 287.31701824 121.23850146 242.35340532 116.44921875 194.93359375 C116.11921875 194.27359375 115.78921875 193.61359375 115.44921875 192.93359375 C91.19421875 192.43859375 91.19421875 192.43859375 66.44921875 191.93359375 C62.70223574 199.42755977 61.91148363 201.50939701 63.44921875 208.93359375 C63.72185547 210.38209717 63.72185547 210.38209717 64 211.85986328 C64.62061297 215.07854233 65.27952166 218.28728799 65.94921875 221.49609375 C68.34852993 233.03335294 69.61269992 243.64552907 69.57421875 255.43359375 C69.57808594 256.61824219 69.58195313 257.80289063 69.5859375 259.0234375 C69.57917585 265.08864163 69.38410141 270.93847323 68.44921875 276.93359375 C67.16724609 277.31837891 67.16724609 277.31837891 65.859375 277.7109375 C61.11970538 279.41026922 56.94136772 281.89858356 52.5703125 284.375 C49.67826137 285.81921577 47.66905829 286.81238866 44.44921875 286.93359375 C42.09765625 285.67578125 42.09765625 285.67578125 39.82421875 283.80859375 C39.06882813 283.20789063 38.3134375 282.6071875 37.53515625 281.98828125 C35.32758284 279.8137801 33.92337485 277.64716772 32.44921875 274.93359375 C32.72596436 274.45639893 33.00270996 273.9792041 33.2878418 273.48754883 C43.46166525 255.84374637 49.6202068 240.41876409 50.24707031 219.8503418 C50.32397125 217.50364656 50.43300371 215.15980134 50.54296875 212.81445312 C50.85206799 204.60983676 50.86468467 197.18671372 46.44921875 189.93359375 C43.44304606 186.92742106 40.62540277 187.33774059 36.44921875 186.93359375 C36.11921875 182.31359375 35.78921875 177.69359375 35.44921875 172.93359375 C37.63546875 173.36671875 39.82171875 173.79984375 42.07421875 174.24609375 C43.5513327 174.51073492 45.02913557 174.77158 46.5078125 175.02734375 C49.92756724 175.62867993 53.29203937 176.35841006 56.671875 177.15234375 C70.76554913 180.1441053 80.06493237 177.77060321 92.35400391 170.31225586 C97.17163779 167.14222806 100.94477479 163.78773201 104.07421875 158.87109375 C104.89792969 157.61619141 104.89792969 157.61619141 105.73828125 156.3359375 C111.00619181 145.86025235 112.39867281 135.35918347 113.51171875 123.87109375 C115.86818102 100.08093508 115.86818102 100.08093508 121.44921875 89.93359375 C121.77921875 88.94359375 122.10921875 87.95359375 122.44921875 86.93359375 C124.2019043 85.87597656 124.2019043 85.87597656 126.44921875 84.93359375 C127.22499268 84.5890918 128.0007666 84.24458984 128.80004883 83.88964844 C135.99525647 81.0344822 142.43614896 80.28733688 150.13671875 80.18359375 C151.23177734 80.15394531 152.32683594 80.12429687 153.45507812 80.09375 C156.11986153 80.02393035 158.78381512 79.97080482 161.44921875 79.93359375 C140.48869998 54.99128038 107.52837741 37.76526064 76.44921875 28.93359375 C75.24910156 28.59199219 74.04898438 28.25039063 72.8125 27.8984375 C51.95353117 23.05013664 24.34203744 23.0478679 4.44921875 31.93359375 C4.16046875 31.02609375 3.87171875 30.11859375 3.57421875 29.18359375 C2.68390099 26.61156467 1.73427462 24.32012609 0.44921875 21.93359375 C-3.13053215 21.77547987 -3.13053215 21.77547987 -8.55078125 23.93359375 Z M41.65625 340.68359375 C40.94404297 341.04453125 40.23183594 341.40546875 39.49804688 341.77734375 C38.76005859 342.15890625 38.02207031 342.54046875 37.26171875 342.93359375 C36.51212891 343.31515625 35.76253906 343.69671875 34.99023438 344.08984375 C33.14048376 345.03239184 31.29448413 345.98229468 29.44921875 346.93359375 C29.93500418 350.0565001 30.44781995 352.92939734 31.44921875 355.93359375 C33.05254666 356.01481299 34.65705901 356.07288509 36.26171875 356.12109375 C37.15503906 356.15589844 38.04835937 356.19070313 38.96875 356.2265625 C41.44660764 356.13038601 41.44660764 356.13038601 43.13671875 354.765625 C44.8082912 352.43238845 45.68708319 350.14060085 46.63671875 347.43359375 C46.98089844 346.47453125 47.32507813 345.51546875 47.6796875 344.52734375 C48.59143496 341.90516198 48.59143496 341.90516198 48.44921875 338.93359375 C45.36848528 338.93359375 44.31592641 339.32183943 41.65625 340.68359375 Z M-25.55078125 348.93359375 C-25.71765573 351.35005157 -25.71765573 351.35005157 -25.55078125 353.93359375 C-23.73885119 356.17684211 -23.73885119 356.17684211 -21.16796875 356.12890625 C-20.26304687 356.10570312 -19.358125 356.0825 -18.42578125 356.05859375 C-17.51570312 356.04054688 -16.605625 356.0225 -15.66796875 356.00390625 C-14.96929687 355.98070312 -14.270625 355.9575 -13.55078125 355.93359375 C-13.79919115 353.97888945 -13.79919115 353.97888945 -14.55078125 351.93359375 C-18.51951719 349.83690307 -21.03516851 348.93359375 -25.55078125 348.93359375 Z " fill="#0C0C0C" transform="translate(187.55078125,9.06640625)"/>
  <path d="M0 0 C0.87720703 -0.03673828 1.75441406 -0.07347656 2.65820312 -0.11132812 C7.16651517 -0.14167578 10.41827203 0.20412257 14.07421875 2.97265625 C18.51713746 7.43402946 21.04558623 12.95867146 21.29394531 19.265625 C21.20695434 21.0970139 21.10105622 22.92759709 20.97680664 24.75683594 C20.37329613 33.08880185 20.37329613 33.08880185 23.72607422 40.38085938 C27.97413232 43.5894201 32.83108096 45.52993398 37.74072266 47.51025391 C41.5394416 49.14390773 44.96284035 51.27279731 48.4375 53.5 C49.09153809 53.91306396 49.74557617 54.32612793 50.41943359 54.75170898 C71.73610673 68.41658355 89.77329617 85.00331736 95.8671875 110.39453125 C99.8331224 131.12061568 98.83682514 155.67256289 87 173.6875 C78.76724848 184.86302228 68.08078779 191.46118326 55.125 195.875 C54.3812915 196.12975098 53.63758301 196.38450195 52.87133789 196.64697266 C47.63874942 198.33609298 42.66635479 199.10095128 37.1875 199.5625 C37.34831055 200.21130127 37.50912109 200.86010254 37.67480469 201.52856445 C38.32767159 205.39198207 38.3688214 209.1990568 38.390625 213.10546875 C38.39768463 213.93806717 38.40474426 214.77066559 38.41201782 215.62849426 C38.64211066 250.86641499 34.97338049 283.43105267 22.1875 316.5625 C21.72827148 317.76302002 21.72827148 317.76302002 21.25976562 318.98779297 C20.35538156 321.33170241 19.43318353 323.66742082 18.5 326 C18.22679932 326.69222656 17.95359863 327.38445312 17.67211914 328.09765625 C16.01118084 332.12441641 14.07215428 335.30076673 11.1875 338.5625 C10.1975 337.0775 10.1975 337.0775 9.1875 335.5625 C5.34198132 334.72347774 2.94831574 334.30889475 -0.8125 335.5625 C-1.1425 336.2225 -1.4725 336.8825 -1.8125 337.5625 C-2.4725 337.2325 -3.1325 336.9025 -3.8125 336.5625 C-2.86890625 334.87060547 -2.86890625 334.87060547 -1.90625 333.14453125 C18.78137469 295.39733545 26.20573577 253.82563498 23.6796875 211.05078125 C23.63255615 210.22920532 23.5854248 209.40762939 23.53686523 208.56115723 C23.421935 206.56151659 23.30493639 204.56199501 23.1875 202.5625 C22.09397217 202.56773682 21.00044434 202.57297363 19.8737793 202.57836914 C15.76799354 202.59664089 11.66221129 202.60801204 7.55639648 202.61743164 C5.78848666 202.62242164 4.02058089 202.62921601 2.25268555 202.63793945 C-16.58331595 202.72847155 -16.58331595 202.72847155 -25.8125 201.5625 C-28.32989789 208.44338758 -29.23075785 214.10960815 -27.6328125 221.30859375 C-27.36339844 222.55833984 -27.09398437 223.80808594 -26.81640625 225.09570312 C-26.52404721 226.39727252 -26.23107416 227.69870414 -25.9375 229 C-23.23608927 241.29203559 -21.6318584 252.45676382 -21.625 265.0625 C-21.61275391 266.24714844 -21.60050781 267.43179687 -21.58789062 268.65234375 C-21.56630317 281.56163891 -21.56630317 281.56163891 -23.8125 286.5625 C-26.67750953 288.91106521 -29.78126698 290.43627653 -33.125 292 C-33.98029297 292.43248047 -34.83558594 292.86496094 -35.71679688 293.31054688 C-39.71811386 295.29105931 -43.34041996 296.99689435 -47.8125 297.5625 C-50.12890625 296.33984375 -50.12890625 296.33984375 -52.375 294.5 C-53.11878906 293.91089844 -53.86257812 293.32179688 -54.62890625 292.71484375 C-57.14923194 290.23058712 -58.940039 287.55589003 -60.8125 284.5625 C-60.53575439 284.08530518 -60.25900879 283.60811035 -59.97387695 283.11645508 C-49.8000535 265.47265262 -43.64151195 250.04767034 -43.01464844 229.47924805 C-42.9377475 227.13255281 -42.82871504 224.78870759 -42.71875 222.44335938 C-42.12729388 210.38141378 -42.12729388 210.38141378 -46.8125 199.5625 C-49.19768213 198.31761323 -51.2578507 197.6132285 -53.88671875 197.0625 C-54.52222656 196.8975 -55.15773438 196.7325 -55.8125 196.5625 C-57.19476016 193.79797967 -56.90775387 191.5163637 -56.875 188.4375 C-56.86597656 187.34179688 -56.85695313 186.24609375 -56.84765625 185.1171875 C-56.83605469 184.27414063 -56.82445312 183.43109375 -56.8125 182.5625 C-56.22984375 182.64290527 -55.6471875 182.72331055 -55.046875 182.80615234 C-54.22703125 182.91910645 -53.4071875 183.03206055 -52.5625 183.1484375 C-51.65234131 183.27452393 -50.74218262 183.40061035 -49.80444336 183.53051758 C-47.79076364 183.8044306 -45.77589674 184.06973884 -43.76000977 184.3269043 C-39.29533227 184.90270525 -34.90096422 185.47872679 -30.52734375 186.55859375 C-18.13222909 189.23757924 -8.22999018 184.22228839 2.1875 177.5625 C3.56124103 176.27083784 4.91779352 174.95655918 6.1875 173.5625 C6.8475 173.5625 7.5075 173.5625 8.1875 173.5625 C8.59162109 172.74072266 8.59162109 172.74072266 9.00390625 171.90234375 C9.83732087 170.25476831 10.70241636 168.62302866 11.58984375 167.00390625 C12.09644531 166.05386719 12.60304688 165.10382813 13.125 164.125 C13.62902344 163.19816406 14.13304687 162.27132812 14.65234375 161.31640625 C19.51069063 150.6485582 19.99047279 138.34574702 21.00390625 126.84765625 C22.13490793 115.05663873 23.65368032 102.61328107 33.1875 94.5625 C38.92794527 91.15482532 43.92668442 89.50597616 50.609375 89.24609375 C51.63417969 89.20419922 52.65898437 89.16230469 53.71484375 89.11914062 C54.77832031 89.07982422 55.84179688 89.04050781 56.9375 89 C58.55591797 88.93522461 58.55591797 88.93522461 60.20703125 88.86914062 C62.86706428 88.76321011 65.52718812 88.66113579 68.1875 88.5625 C46.50598152 65.04442937 14.80407879 48.05538031 -15.8125 39.5625 C-17.00746094 39.22347656 -18.20242188 38.88445313 -19.43359375 38.53515625 C-39.30164137 33.89428829 -61.22443951 35.34160799 -80.91455078 40.10498047 C-83.20171271 40.65632359 -85.50186833 41.12082996 -87.8125 41.5625 C-88.48404933 40.27336513 -89.14958859 38.98109796 -89.8125 37.6875 C-90.18375 36.96820313 -90.555 36.24890625 -90.9375 35.5078125 C-91.8125 33.5625 -91.8125 33.5625 -91.8125 31.5625 C-92.699375 31.8925 -93.58625 32.2225 -94.5 32.5625 C-97.66899142 33.51917665 -99.56213708 33.97997781 -102.8125 33.5625 C-104.91796875 31.734375 -104.91796875 31.734375 -107 29.3125 C-111.43326501 24.57323521 -115.6480288 22.40283274 -121.8125 20.5625 C-122.6614042 22.20455546 -122.6614042 22.20455546 -122.8125 24.5625 C-121.78115675 27.08324118 -120.71711778 29.36414777 -119.4375 31.75 C-119.1075 32.39130859 -118.7775 33.03261719 -118.4375 33.69335938 C-116.91998635 36.83047653 -116.91998635 36.83047653 -114.8125 39.5625 C-114.9375 42.9375 -114.9375 42.9375 -115.8125 46.5625 C-118.54427511 49.06012296 -120.12843271 49.5339972 -123.8125 49.6875 C-127.9948708 48.11911095 -129.78576105 45.46255941 -131.8125 41.5625 C-131.98136719 40.84707031 -132.15023437 40.13164063 -132.32421875 39.39453125 C-132.56591797 38.48767578 -132.56591797 38.48767578 -132.8125 37.5625 C-133.4725 37.2325 -134.1325 36.9025 -134.8125 36.5625 C-136.40859619 30.29812247 -136.1308554 25.20370419 -132.8125 19.5625 C-128.21329413 14.38839339 -124.86893603 12.28904949 -118.109375 11.6484375 C-115.23670697 11.54095672 -112.60839127 11.91729432 -109.8125 12.5625 C-108.8225 10.2525 -107.8325 7.9425 -106.8125 5.5625 C-107.8025 4.5725 -108.7925 3.5825 -109.8125 2.5625 C-101.52158998 2.75092977 -94.26995549 7.32283699 -88.33203125 12.88671875 C-85.27503097 16.2555442 -82.70730939 19.40705169 -80.8125 23.5625 C-78.87492096 23.41772064 -76.93744176 23.27160502 -75 23.125 C-73.92105469 23.04378906 -72.84210938 22.96257813 -71.73046875 22.87890625 C-69.63179928 22.70942247 -67.53310147 22.52893879 -65.44262695 22.27783203 C-60.03475649 21.66641588 -54.89358516 21.59182476 -49.45703125 21.921875 C-36.71184493 23.28872909 -36.71184493 23.28872909 -24.73535156 20.37158203 C-21.45201129 16.98516266 -20.37202332 12.95284123 -18.8125 8.5625 C-16.41015625 5.82421875 -16.41015625 5.82421875 -13.8125 3.5625 C-13.25175781 2.97597656 -12.69101562 2.38945313 -12.11328125 1.78515625 C-8.26457568 -0.26008118 -4.2876434 0.00932772 0 0 Z " fill="#0C0C0C" transform="translate(279.8125,-0.5625)"/>
  <path d="M0 0 C1.39412109 -0.00386719 1.39412109 -0.00386719 2.81640625 -0.0078125 C5.17897476 0.11190036 7.17780763 0.45506767 9.4375 1.125 C9.4375 1.785 9.4375 2.445 9.4375 3.125 C11.4175 4.115 11.4175 4.115 13.4375 5.125 C10.6875 12 10.6875 12 8.4375 13.125 C7.03609093 12.98514451 5.63991258 12.78976626 4.25 12.5625 C-0.18483581 12.02861126 -3.37806355 12.3546615 -7.5625 14.125 C-11.84679704 17.53296355 -13.93895284 20.91255913 -15.5625 26.125 C-15.78788071 29.47631315 -15.74461987 32.77264529 -15.5625 36.125 C-14.5725 36.455 -13.5825 36.785 -12.5625 37.125 C-11.47948965 39.42098193 -10.48453709 41.75977442 -9.5625 44.125 C-8.90961373 45.46513497 -8.25024405 46.80241528 -7.5625 48.125 C-2.16247871 48.48671663 -2.16247871 48.48671663 2.4375 46.125 C3.65462446 43.17827762 3.95103641 42.18504169 3.4375 39.125 C1.82370055 35.96589126 -0.00772144 33.01387422 -1.90234375 30.015625 C-3.91263185 26.51535867 -4.47201083 24.10652359 -4.5625 20.125 C-2.5625 19.125 -2.5625 19.125 -0.49609375 19.5859375 C5.97000668 21.95380526 9.98267026 25.13410541 14.625 30.19921875 C16.29869002 32.19926895 16.29869002 32.19926895 18.4375 33.125 C19.4296875 36.14453125 19.4296875 36.14453125 20.3125 39.9375 C20.77269531 41.80341797 20.77269531 41.80341797 21.2421875 43.70703125 C21.4375 47.125 21.4375 47.125 19.80078125 49.37109375 C17.47884431 51.09431637 15.15968747 52.77630235 12.75 54.375 C4.5700224 60.01677867 -2.21429985 66.51512827 -8.5625 74.125 C-9.32304687 74.99769531 -10.08359375 75.87039062 -10.8671875 76.76953125 C-28.96304381 97.82499023 -41.06283948 122.37922436 -49.71557617 148.65917969 C-50.58075337 151.17814473 -51.57333689 153.65209223 -52.5625 156.125 C-56.8525 156.125 -61.1425 156.125 -65.5625 156.125 C-65.00075291 150.0964946 -63.68288959 144.82889414 -61.6875 139.125 C-61.43097656 138.36960938 -61.17445312 137.61421875 -60.91015625 136.8359375 C-59.63581714 133.1089759 -58.29493596 129.42087383 -56.8671875 125.75 C-55.39317617 122.29665003 -55.39317617 122.29665003 -55.5625 119.125 C-70.51752621 122.84425 -84.0705178 129.82595713 -95.5625 140.125 C-96.39007813 140.83398438 -97.21765625 141.54296875 -98.0703125 142.2734375 C-125.18210256 165.90297929 -141.90108062 201.29874655 -144.5625 237.125 C-146.17936364 274.2050729 -137.74993304 306.94531933 -113.02734375 335.2578125 C-110.30453081 338.42507827 -107.8954503 341.66579783 -105.5625 345.125 C-106.5525 345.125 -107.5425 345.125 -108.5625 345.125 C-108.8925 345.785 -109.2225 346.445 -109.5625 347.125 C-109.8925 346.465 -110.2225 345.805 -110.5625 345.125 C-110.8925 346.115 -111.2225 347.105 -111.5625 348.125 C-110.9025 348.125 -110.2425 348.125 -109.5625 348.125 C-109.5625 348.785 -109.5625 349.445 -109.5625 350.125 C-110.2225 350.455 -110.8825 350.785 -111.5625 351.125 C-110.81099977 354.40273504 -110.81099977 354.40273504 -107.5625 356.125 C-108.5525 356.455 -109.5425 356.785 -110.5625 357.125 C-113.52838842 355.16493461 -115.99354131 352.57436099 -118.5625 350.125 C-119.12066406 349.63 -119.67882812 349.135 -120.25390625 348.625 C-144.52988841 326.16240446 -158.0702526 290.10586983 -159.68847656 257.59399414 C-160.9744875 213.57253734 -146.94023201 173.04111518 -116.9609375 140.58984375 C-97.42641782 120.51446603 -73.73864573 107.10249909 -46.5625 100.125 C-45.5725 100.125 -44.5825 100.125 -43.5625 100.125 C-43.29566406 99.40441406 -43.02882813 98.68382813 -42.75390625 97.94140625 C-38.29614404 87.40354871 -30.36977822 77.68036451 -22.953125 69.0625 C-22.12296875 68.093125 -21.2928125 67.12375 -20.4375 66.125 C-19.67179688 65.25875 -18.90609375 64.3925 -18.1171875 63.5 C-16.36980399 61.32063364 -16.36980399 61.32063364 -16.609375 59.13671875 C-17.83148538 56.55726447 -19.32583222 54.2937991 -20.9375 51.9375 C-24.07168528 47.1270394 -26.14723064 42.6728559 -27.5625 37.125 C-27.9028125 35.8875 -27.9028125 35.8875 -28.25 34.625 C-29.29761634 26.24406931 -28.8092756 18.11541435 -24.0859375 10.85546875 C-17.6614571 2.94954424 -10.06755809 -0.02800433 0 0 Z " fill="#0C0C0C" transform="translate(160.5625,-0.125)"/>
  <path d="M 0 0 C 1.627 -0.031 1.627 -0.031 3.287 -0.062 C 4.336 -0.068 5.384 -0.073 6.465 -0.078 C 7.419 -0.087 8.372 -0.097 9.355 -0.106 C 13.278 0.41 15.933 2.098 18.68 4.898 C 22.008 9.467 22.008 9.467 22.25 12.937 C 21.062 15.25 21.062 15.25 18.062 17.187 C 14.852 18.97 14.852 18.97 14 22.125 C 14.082 26.217 14.595 27.937 17.062 31.25 C 19.608 32.757 22.17 33.993 24.883 35.172 C 27.062 36.25 27.062 36.25 28.062 38.25 C 27.936 66.019 27.936 66.019 20.062 75.25 C 18.25 75.188 18.25 75.188 16.062 74.25 C 12.226 67.906 11.916 60.488 11.062 53.25 C 7.432 53.58 3.802 53.91 0.062 54.25 C -0.392 55.718 -0.392 55.718 -0.855 57.215 C -5.766 72.741 -12.824 86.358 -27.938 94.25 C -39.53 99.391 -50.477 100.55 -63.063 100.375 C -64.305 100.366 -65.548 100.357 -66.828 100.348 C -69.865 100.324 -72.901 100.292 -75.937 100.25 C -75.937 99.59 -75.937 98.93 -75.937 98.25 C -75.322 97.968 -74.707 97.686 -74.073 97.396 C -71.274 96.106 -68.481 94.803 -65.687 93.5 C -64.719 93.057 -63.751 92.613 -62.754 92.156 C -61.819 91.718 -60.885 91.28 -59.922 90.828 C -59.063 90.43 -58.204 90.032 -57.319 89.622 C -54.744 88.139 -53.013 86.355 -50.937 84.25 C -50.277 84.25 -49.617 84.25 -48.937 84.25 C -48.668 83.702 -48.399 83.154 -48.121 82.59 C -47.288 80.942 -46.423 79.311 -45.535 77.691 C -44.775 76.266 -44.775 76.266 -44 74.813 C -43.496 73.886 -42.992 72.959 -42.473 72.004 C -37.614 61.336 -37.135 49.033 -36.121 37.535 C -34.99 25.744 -33.471 13.301 -23.937 5.25 C -15.915 0.487 -9.219 0.044 0 0 Z M -119.429 -31.121 C -116.706 -31.709 -112.01 -32.173 -108.393 -31.121 C -104.458 -29.976 -99.294 -27.444 -96.806 -23.948 C -94.24 -20.342 -92.574 -13.798 -93.496 -9.602 C -94.381 -5.566 -98.281 -1.028 -101.772 0.882 C -105.138 2.723 -109.917 2.868 -113.911 1.985 C -118.201 1.037 -123.934 -1.613 -126.602 -5.188 C -129.28 -8.777 -130.583 -15.433 -129.912 -19.534 C -129.312 -23.206 -125.876 -27.011 -123.843 -28.914 C -122.377 -30.286 -121.402 -30.694 -119.429 -31.121 Z" transform="translate(336.9375,88.75)" style="fill: rgb(164, 118, 84);"/>
  <path d="M0 0 C0.87720703 -0.03673828 1.75441406 -0.07347656 2.65820312 -0.11132812 C7.16651517 -0.14167578 10.41827203 0.20412257 14.07421875 2.97265625 C20.21115498 9.12867104 21.57348015 16.71932504 21.69921875 25.11523438 C21.69535156 26.06720703 21.69148437 27.01917969 21.6875 28 C21.67985203 29.93621083 21.68947708 31.87258911 21.71875 33.80859375 C21.71423828 34.65091553 21.70972656 35.4932373 21.70507812 36.36108398 C22.35238293 39.31490355 23.73931705 39.92332075 26.1875 41.5625 C26.7265625 43.7890625 26.7265625 43.7890625 26.8125 46.1875 C26.87231785 48.53241509 26.87231785 48.53241509 27.1875 50.5625 C27.8475 50.8925 28.5075 51.2225 29.1875 51.5625 C28.5275 51.5625 27.8675 51.5625 27.1875 51.5625 C27.5175 52.5525 27.8475 53.5425 28.1875 54.5625 C26.1875 55.5625 26.1875 55.5625 22.5 54.5625 C18.26769308 53.08658405 14.27841985 51.19964513 10.25 49.25 C-18.52036978 35.48644231 -49.87453942 32.5958743 -80.91455078 40.10498047 C-83.20171271 40.65632359 -85.50186833 41.12082996 -87.8125 41.5625 C-88.48404933 40.27336513 -89.14958859 38.98109796 -89.8125 37.6875 C-90.18375 36.96820313 -90.555 36.24890625 -90.9375 35.5078125 C-91.8125 33.5625 -91.8125 33.5625 -91.8125 31.5625 C-92.699375 31.8925 -93.58625 32.2225 -94.5 32.5625 C-97.66899142 33.51917665 -99.56213708 33.97997781 -102.8125 33.5625 C-104.91796875 31.734375 -104.91796875 31.734375 -107 29.3125 C-111.43326501 24.57323521 -115.6480288 22.40283274 -121.8125 20.5625 C-122.6614042 22.20455546 -122.6614042 22.20455546 -122.8125 24.5625 C-121.78115675 27.08324118 -120.71711778 29.36414777 -119.4375 31.75 C-119.1075 32.39130859 -118.7775 33.03261719 -118.4375 33.69335938 C-116.91998635 36.83047653 -116.91998635 36.83047653 -114.8125 39.5625 C-114.9375 42.9375 -114.9375 42.9375 -115.8125 46.5625 C-118.54427511 49.06012296 -120.12843271 49.5339972 -123.8125 49.6875 C-127.9948708 48.11911095 -129.78576105 45.46255941 -131.8125 41.5625 C-131.98136719 40.84707031 -132.15023437 40.13164063 -132.32421875 39.39453125 C-132.56591797 38.48767578 -132.56591797 38.48767578 -132.8125 37.5625 C-133.4725 37.2325 -134.1325 36.9025 -134.8125 36.5625 C-136.40859619 30.29812247 -136.1308554 25.20370419 -132.8125 19.5625 C-128.21329413 14.38839339 -124.86893603 12.28904949 -118.109375 11.6484375 C-115.23670697 11.54095672 -112.60839127 11.91729432 -109.8125 12.5625 C-108.8225 10.2525 -107.8325 7.9425 -106.8125 5.5625 C-107.8025 4.5725 -108.7925 3.5825 -109.8125 2.5625 C-101.52158998 2.75092977 -94.26995549 7.32283699 -88.33203125 12.88671875 C-85.27503097 16.2555442 -82.70730939 19.40705169 -80.8125 23.5625 C-78.87492096 23.41772064 -76.93744176 23.27160502 -75 23.125 C-73.92105469 23.04378906 -72.84210938 22.96257813 -71.73046875 22.87890625 C-69.63179928 22.70942247 -67.53310147 22.52893879 -65.44262695 22.27783203 C-60.03475649 21.66641588 -54.89358516 21.59182476 -49.45703125 21.921875 C-36.71184493 23.28872909 -36.71184493 23.28872909 -24.73535156 20.37158203 C-21.45201129 16.98516266 -20.37202332 12.95284123 -18.8125 8.5625 C-16.41015625 5.82421875 -16.41015625 5.82421875 -13.8125 3.5625 C-13.25175781 2.97597656 -12.69101562 2.38945313 -12.11328125 1.78515625 C-8.26457568 -0.26008118 -4.2876434 0.00932772 0 0 Z " fill="#0C0C0C" transform="translate(279.8125,-0.5625)"/>
  <path d="M0 0 C2.42890606 1.56877031 4.69413658 3.2475438 7 5 C6.36763551 12.33542812 6.36763551 12.33542812 4.375 15.9375 C1.18723547 23.037521 4.96210889 33.19380459 6.5 40.5625 C8.89532953 52.08061313 10.18109679 62.73089197 10.1875 74.5 C10.19974609 75.68464844 10.21199219 76.86929688 10.22460938 78.08984375 C10.24619683 90.99913891 10.24619683 90.99913891 8 96 C5.13499047 98.34856521 2.03123302 99.87377653 -1.3125 101.4375 C-2.16779297 101.86998047 -3.02308594 102.30246094 -3.90429688 102.74804688 C-7.90561386 104.72855931 -11.52791996 106.43439435 -16 107 C-18.31640625 105.77734375 -18.31640625 105.77734375 -20.5625 103.9375 C-21.30628906 103.34839844 -22.05007812 102.75929688 -22.81640625 102.15234375 C-25.33673194 99.66808712 -27.127539 96.99339003 -29 94 C-28.72325439 93.52280518 -28.44650879 93.04561035 -28.16137695 92.55395508 C-17.9875535 74.91015262 -11.82901195 59.48517034 -11.20214844 38.91674805 C-11.1252475 36.57005281 -11.01621504 34.22620759 -10.90625 31.88085938 C-10.58944962 23.44898372 -11.0035239 16.62046704 -15 9 C-15.33 8.01 -15.66 7.02 -16 6 C-14.625 4.5 -14.625 4.5 -13 3 C-12.34 3 -11.68 3 -11 3 C-10.67 2.01 -10.34 1.02 -10 0 C-6.37067117 -2.82281131 -3.98183008 -1.79572729 0 0 Z " transform="translate(248,190)" style="fill: rgb(71, 70, 67);"/>
  <path d="M0 0 C8.56069174 6.2698024 17.21541017 14.45352372 22.71875 23.5625 C22.71875 24.5525 22.71875 25.5425 22.71875 26.5625 C19.60966866 27.59886045 17.88584402 27.54306607 14.65625 27.375 C9.08094584 27.30084239 4.21133807 28.23805971 -1.15625 29.5625 C-10.70187712 31.85998326 -21.671371 34.31179759 -30.59765625 28.8984375 C-35.3774652 25.10564247 -38.36655407 21.69201407 -39.28125 15.5625 C-41.08722656 15.57990234 -41.08722656 15.57990234 -42.9296875 15.59765625 C-44.50520679 15.60703434 -46.08072775 15.61613452 -47.65625 15.625 C-48.84734375 15.63756836 -48.84734375 15.63756836 -50.0625 15.65039062 C-56.0546875 15.67578125 -56.0546875 15.67578125 -58.28125 14.5625 C-57.76723288 10.06485019 -56.42981858 7.80282135 -53.28125 4.5625 C-50.2261054 2.72510714 -47.03204986 1.26874066 -43.78125 -0.1875 C-42.92660156 -0.58582031 -42.07195312 -0.98414063 -41.19140625 -1.39453125 C-28.02428614 -7.45428231 -12.5605851 -7.91488924 0 0 Z M-17.28125 3.5625 C-19.05315909 4.91694301 -19.05315909 4.91694301 -20.28125 6.5625 C-19.62125 7.8825 -18.96125 9.2025 -18.28125 10.5625 C-16.63125 10.2325 -14.98125 9.9025 -13.28125 9.5625 C-13.28125 7.9125 -13.28125 6.2625 -13.28125 4.5625 C-15.11825789 3.79007731 -15.11825789 3.79007731 -17.28125 3.5625 Z " fill="#0C0C0C" transform="translate(239.28125,61.4375)"/>
  <path d="M0 0 C18.48 0 36.96 0 56 0 C56.66 5.61 57.32 11.22 58 17 C59.2065625 16.7834375 60.413125 16.566875 61.65625 16.34375 C63.27077186 16.06214735 64.88535873 15.78091721 66.5 15.5 C67.29148437 15.35691406 68.08296875 15.21382813 68.8984375 15.06640625 C77.8542823 13.52482641 86.95898161 12.71237931 94.875 17.875 C96.91584643 19.91584643 98.06803752 21.28883642 99 24 C99 25.32 99 26.64 99 28 C91.55813035 28.28215316 84.1168345 28.4932678 76.67078209 28.62174606 C73.21003474 28.68352247 69.75302702 28.76675499 66.29443359 28.90527344 C39.670507 29.942707 23.35074476 22.36518791 3.4375 5.1875 C2.77621094 4.62417969 2.11492188 4.06085938 1.43359375 3.48046875 C0 2 0 2 0 0 Z " transform="translate(50,338)" style="fill: rgb(164, 118, 84);"/>
  <path d="M0 0 C8.12931818 7.72820051 8.12931818 7.72820051 9 13 C5.19378667 14.41626543 2.06366601 15.52193875 -2 15 C-4.10546875 13.171875 -4.10546875 13.171875 -6.1875 10.75 C-10.62076501 6.01073521 -14.8355288 3.84033274 -21 2 C-21.8489042 3.64205546 -21.8489042 3.64205546 -22 6 C-20.96865675 8.52074118 -19.90461778 10.80164777 -18.625 13.1875 C-18.295 13.82880859 -17.965 14.47011719 -17.625 15.13085938 C-16.10748635 18.26797653 -16.10748635 18.26797653 -14 21 C-14.125 24.375 -14.125 24.375 -15 28 C-17.73177511 30.49762296 -19.31593271 30.9714972 -23 31.125 C-27.1823708 29.55661095 -28.97326105 26.90005941 -31 23 C-31.16886719 22.28457031 -31.33773437 21.56914063 -31.51171875 20.83203125 C-31.67285156 20.22746094 -31.83398438 19.62289062 -32 19 C-32.66 18.67 -33.32 18.34 -34 18 C-35.59609619 11.73562247 -35.3183554 6.64120419 -32 1 C-22.27062629 -9.94554543 -11.00105394 -8.49760897 0 0 Z " transform="translate(179,18)" style="fill: rgb(164, 118, 84);"/>
  <path d="M0 0 C0.94101563 0.00322266 1.88203125 0.00644531 2.8515625 0.00976562 C3.83640625 0.01814453 4.82125 0.02652344 5.8359375 0.03515625 C6.82851562 0.03966797 7.82109375 0.04417969 8.84375 0.04882812 C11.2995391 0.0606348 13.75520854 0.07710225 16.2109375 0.09765625 C18.1777605 5.30973721 20.12949528 10.52382373 21.9609375 15.78515625 C22.19425781 16.42259766 22.42757812 17.06003906 22.66796875 17.71679688 C23.99300243 21.56098141 24.43682439 24.18827306 23.2109375 28.09765625 C18.9532376 28.64731833 14.98403579 29.01511261 11.08203125 26.99609375 C3.56614232 20.83154647 -2.10769586 11.51525558 -6.7890625 3.09765625 C-6.7890625 2.43765625 -6.7890625 1.77765625 -6.7890625 1.09765625 C-4.33631109 -0.12871945 -2.7384844 -0.01649689 0 0 Z " transform="translate(180.7890625,337.90234375)" style="fill: rgb(164, 118, 84);"/>
  <path d="M0 0 C6.93 0 13.86 0 21 0 C22 3 22 3 20.8828125 5.27734375 C8.12598425 24.58267717 8.12598425 24.58267717 3 28 C0.30078125 28.1953125 0.30078125 28.1953125 -2.6875 28.125 C-4.17830078 28.09792969 -4.17830078 28.09792969 -5.69921875 28.0703125 C-6.45847656 28.04710937 -7.21773437 28.02390625 -8 28 C-6.42990815 18.26543055 -3.19602362 9.31015575 0 0 Z " transform="translate(253,338)" style="fill: rgb(164, 118, 84);"/>
  <path d="M0 0 C2.97116227 1.78801488 5.42553953 3.85107906 7 7 C7.54837085 11.02138622 7.1184148 12.78685336 5.125 16.375 C2.68300993 18.99685336 0.73272675 19.49630904 -2.8125 19.6875 C-8.45598962 19.36646317 -13.00861707 16.99138293 -17 13 C-17.375 10.25 -17.375 10.25 -17 7 C-12.33017907 1.12936798 -7.45271567 -0.91524578 0 0 Z " fill="#0E0D0C" transform="translate(329,104)"/>
  <path d="M0 0 C4.25630264 4.03228671 5.01350786 7.45381232 5.1875 13.0625 C5 17 5 17 3 20 C-4.25398658 19.52432875 -10.26812223 17.70533406 -17 15 C-16.84238796 8.69551854 -13.32392365 5.18412011 -9 1 C-5.87139505 -0.56430248 -3.44397075 -0.35627284 0 0 Z " transform="translate(284,11)" style="fill: rgb(164, 118, 84);"/>
  <path d="M0 0 C0.33 0.99 0.66 1.98 1 3 C-2.06117568 5.62386487 -2.73173127 6 -7 6 C-8.34977849 6.63270867 -9.68352881 7.30062468 -11 8 C-12.3242287 8.36784131 -13.65613912 8.71202981 -15 9 C-16 7 -16 7 -16 4 C-17.65 4.66 -19.3 5.32 -21 6 C-14.7992154 -1.14029742 -8.79549926 -1.47588876 0 0 Z " transform="translate(169,12)" style="fill: rgb(164, 118, 84);"/>
  <path d="M0 0 C0.33 0 0.66 0 1 0 C1.06058594 1.16917969 1.12117187 2.33835938 1.18359375 3.54296875 C1.26804034 5.09115614 1.35268625 6.63933268 1.4375 8.1875 C1.47681641 8.95642578 1.51613281 9.72535156 1.55664062 10.51757812 C1.83714926 16.32466971 1.83714926 16.32466971 3 22 C3.66 22.33 4.32 22.66 5 23 C5 24.98 5 26.96 5 29 C4.34 29 3.68 29 3 29 C3 29.66 3 30.32 3 31 C3.66 31.33 4.32 31.66 5 32 C4.505 32.495 4.505 32.495 4 33 C4.28604898 34.67542976 4.61781233 36.34385343 5 38 C4.34 38 3.68 38 3 38 C0.75637987 25.20602331 -0.42356244 12.98924825 0 0 Z " fill="#040404" transform="translate(1,242)"/>
  <path d="M0 0 C0.66 0.33 1.32 0.66 2 1 C1.814375 1.61875 1.62875 2.2375 1.4375 2.875 C0.76313824 5.04160178 0.76313824 5.04160178 2 7 C1.01 7.99 0.02 8.98 -1 10 C-1.33 9.01 -1.66 8.02 -2 7 C-3.65 8.32 -5.3 9.64 -7 11 C-6.40716379 7.60807637 -5.23256811 5.7892243 -2.9375 3.25 C-2.38964844 2.63640625 -1.84179688 2.0228125 -1.27734375 1.390625 C-0.85582031 0.93171875 -0.43429688 0.4728125 0 0 Z " fill="#060606" transform="translate(142,5)"/>
  <path d="M0 0 C0.66 0.33 1.32 0.66 2 1 C-0.75 6.875 -0.75 6.875 -3 8 C-2.34 9.98 -1.68 11.96 -1 14 C-3 12.875 -3 12.875 -5 11 C-5.5625 8.125 -5.5625 8.125 -5 5 C-2.5 2.125 -2.5 2.125 0 0 Z " fill="#191411" transform="translate(317,106)"/>
  <path d="M0 0 C0.66 0.33 1.32 0.66 2 1 C1.34 3.97 0.68 6.94 0 10 C-1.32 10.33 -2.64 10.66 -4 11 C-3.48964169 6.6109185 -2.47785723 3.66291938 0 0 Z " fill="#141210" transform="translate(246,353)"/>
  <path d="M0 0 C0.99 0.33 1.98 0.66 3 1 C3.33 3.64 3.66 6.28 4 9 C3.34 9 2.68 9 2 9 C2 9.66 2 10.32 2 11 C1.34 11 0.68 11 0 11 C-1.125 3.375 -1.125 3.375 0 0 Z " fill="#141211" transform="translate(106,333)"/>
  <path d="M0 0 C1.39412109 -0.02126953 1.39412109 -0.02126953 2.81640625 -0.04296875 C5.51238389 0.19408443 7.13157875 0.81479864 9.4375 2.1875 C7.4575 2.8475 5.4775 3.5075 3.4375 4.1875 C3.1075 3.5275 2.7775 2.8675 2.4375 2.1875 C-1.8525 2.1875 -6.1425 2.1875 -10.5625 2.1875 C-10.5625 1.8575 -10.5625 1.5275 -10.5625 1.1875 C-6.99432513 0.37802294 -3.65768144 0.02543589 0 0 Z " fill="#030202" transform="translate(160.5625,-0.1875)"/>
  <path d="M0 0 C1.65 0.99 3.3 1.98 5 3 C5.33 2.01 5.66 1.02 6 0 C6.33 2.31 6.66 4.62 7 7 C5.02 7 3.04 7 1 7 C0.67 4.69 0.34 2.38 0 0 Z " transform="translate(249,232)" style="fill: rgb(71, 70, 67);"/>
  <path d="M0 0 C0.99 0.495 0.99 0.495 2 1 C2 1.66 2 2.32 2 3 C3.65 2.67 5.3 2.34 7 2 C6.67 2.66 6.34 3.32 6 4 C6.66 4.33 7.32 4.66 8 5 C8 5.66 8 6.32 8 7 C6.35 7.33 4.7 7.66 3 8 C0 2.25 0 2.25 0 0 Z " fill="#060606" transform="translate(189,33)"/>
  <path d="M0 0 C0.66 0 1.32 0 2 0 C1.8125 2.875 1.8125 2.875 1 6 C-1.5625 7.375 -1.5625 7.375 -4 8 C-3.34 6.02 -2.68 4.04 -2 2 C-1.34 2 -0.68 2 0 2 C0 1.34 0 0.68 0 0 Z " transform="translate(163,40)" style="fill: rgb(164, 118, 84);"/>
  <path d="M0 0 C0.33 0 0.66 0 1 0 C1 2.64 1 5.28 1 8 C0.34 7.67 -0.32 7.34 -1 7 C-1.33 7.99 -1.66 8.98 -2 10 C-2.66 10 -3.32 10 -4 10 C-2.99806563 6.20696275 -2.18975773 3.28463659 0 0 Z " transform="translate(288,20)" style="fill: rgb(164, 118, 84);"/>
  <path d="M0 0 C0.33 0.66 0.66 1.32 1 2 C1.66 2.33 2.32 2.66 3 3 C3.33 3.33 3.66 3.66 4 4 C2.25 7.875 2.25 7.875 0 9 C-1.10844919 5.67465243 -0.84454356 3.37817425 0 0 Z " fill="#171513" transform="translate(362,150)"/>
  <path d="M0 0 C0 2 0 4 0 6 C-0.66 6 -1.32 6 -2 6 C-1.67 6.99 -1.34 7.98 -1 9 C-1.33 9.66 -1.66 10.32 -2 11 C-2.66 10.67 -3.32 10.34 -4 10 C-4 8.02 -4 6.04 -4 4 C-3.34 4 -2.68 4 -2 4 C-1.34 2.68 -0.68 1.36 0 0 Z " fill="#060606" transform="translate(158,324)"/>
  <path d="M0 0 C0.66 0 1.32 0 2 0 C3.2077558 3.62326739 2.54311128 4.64146369 1 8 C-1 5 -1 5 -0.625 2.3125 C-0.41875 1.549375 -0.2125 0.78625 0 0 Z " fill="#191310" transform="translate(351,109)"/>
  <path d="M0 0 C2.475 0.99 2.475 0.99 5 2 C5 3.98 5 5.96 5 8 C2.20127563 5.47211993 0.54226981 3.79588866 0 0 Z " fill="#060606" transform="translate(137,46)"/>
  <path d="M0 0 C1.65 0.33 3.3 0.66 5 1 C5 1.66 5 2.32 5 3 C4.01 3 3.02 3 2 3 C2 3.66 2 4.32 2 5 C1.01 5 0.02 5 -1 5 C-0.67 3.35 -0.34 1.7 0 0 Z " transform="translate(157,19)" style="fill: rgb(164, 118, 84);"/>
  <path d="M0 0 C4.97306516 0.49730652 8.63799813 1.55302334 13 4 C9.16290601 5.27903133 7.69151452 4.50674062 4 3 C1.625 1.375 1.625 1.375 0 0 Z " fill="#020202" transform="translate(170,2)"/>
  <path d="M0 0 C0.99 0.33 1.98 0.66 3 1 C2.25 3.9375 2.25 3.9375 1 7 C-1.125 7.875 -1.125 7.875 -3 8 C-2.505 6.865625 -2.01 5.73125 -1.5 4.5625 C0.06467617 1.49062936 0.06467617 1.49062936 0 0 Z " fill="#161311" transform="translate(252,333)"/>
  <path d="M0 0 C0.33 0 0.66 0 1 0 C1.125 2.875 1.125 2.875 1 6 C0.34 6.66 -0.32 7.32 -1 8 C-1.66 8 -2.32 8 -3 8 C-3 7.34 -3 6.68 -3 6 C-2.34 6 -1.68 6 -1 6 C-1.33 4.68 -1.66 3.36 -2 2 C-1.34 2 -0.68 2 0 2 C0 1.34 0 0.68 0 0 Z " fill="#2A2724" transform="translate(335,111)"/>
</svg>